<svg t="1690384440108" class="icon" viewBox="0 0 1024 1024" version="1.1" xmlns="http://www.w3.org/2000/svg" p-id="3641" width="200" height="200">
<path d="M953.448232 132.335972a22.193935 22.193935 0 0 0-15.158393-5.94823h-31.979733l32.875165-31.020341 1.598987-1.471068a17.524894 17.524894 0 0 0 0-25.711705h-0.063959a17.460934 17.460934 0 0 0-1.471068-1.598987l-44.899545-42.405125-0.895433-0.767514a19.443678 19.443678 0 0 0-13.623366-5.308636 19.571597 19.571597 0 0 0-13.623366 5.308636 15.734029 15.734029 0 0 0-1.598987 1.407108l-34.154354 32.29953V20.08711a19.571597 19.571597 0 0 0-6.268028-14.326921 22.193935 22.193935 0 0 0-15.158393-5.94823h-62.552358a21.746218 21.746218 0 0 0-15.158393 5.94823 19.571597 19.571597 0 0 0-6.268028 14.326921v174.417463c-0.959392-0.063959-1.854825-0.255838-2.814216-0.255838H109.119326a43.812234 43.812234 0 0 0-43.620356 33.258922c-4.477163 19.571597 5.884271 39.015274 25.20003 47.266045l98.433617 42.149288c11.640623 5.436555 35.561463 21.682259 33.57872 63.191952a1120.314001 1120.314001 0 0 1-18.356367 155.61338c-5.308636 27.310692-27.438611 168.597152 58.139154 265.559702 29.165516 33.067044 67.09348 56.732046 113.336174 71.058966v51.999046l-56.28433 53.150316a19.059921 19.059921 0 0 0 0 28.014246 21.746218 21.746218 0 0 0 29.677192 0l26.607138-25.13607v23.153326c0 10.937069 9.402041 19.827434 20.978704 19.827435a20.467029 20.467029 0 0 0 20.978705-19.827435v-24.240637l27.182773 25.647745a21.874137 21.874137 0 0 0 29.677192 0 19.059921 19.059921 0 0 0 0-28.014246l-56.796005-53.725951v-40.998017c23.728962 4.093406 49.184829 6.268028 76.431561 6.268027h122.162579v35.561463l-56.540167 53.406154a19.059921 19.059921 0 0 0 0 28.014246 21.746218 21.746218 0 0 0 29.677192 0l26.926935-25.391908v23.409165c0 10.937069 9.402041 19.827434 20.978705 19.827434a20.467029 20.467029 0 0 0 20.978704-19.827434v-23.92084l26.926935 25.391907a21.874137 21.874137 0 0 0 29.677193 0 19.059921 19.059921 0 0 0 0-28.014246l-56.540168-53.406153v-35.561463c60.825452-5.628433 108.539213-54.173667 108.539213-113.080336v-538.538701a39.846747 39.846747 0 0 0-1.535027-10.425393h173.074314a21.810178 21.810178 0 0 0 15.158394-5.94823 20.33911 20.33911 0 0 0 5.94823-14.262961v-59.034587a19.443678 19.443678 0 0 0-6.268028-14.32692z m-253.79116 642.600752c0 27.694449-23.856881 50.208181-53.214275 50.20818H494.155309c-81.740197 0-142.373771-21.682259-180.109855-64.471141-67.797034-76.879278-46.370613-199.809371-43.684315-213.624615 6.971582-35.817301 15.989866-93.444779 19.443677-164.119989 3.261933-66.517844-35.94522-107.7717-73.745264-124.209283l-2.686297-1.087311h486.219858v517.304159zM478.805037 410.431729c31.595976 0 57.243722-24.176678 57.243722-54.045749 0-29.86907-25.647746-54.045749-57.243722-54.045748s-57.243722 24.176678-57.243721 54.045748c0 29.805111 25.647746 54.045749 57.243721 54.045749z" fill="#cdcdcd" p-id="3642">
</path></svg>